# xmcd CD database file
#
# Track frame offsets:
#	183
#	8435
#	27903
#	54540
#	74148
#	93899
#	112420
#	122290
#	136275
#	159690
#	181316
#	198120
#	216648
#
# Disc length: 3366 seconds
#
# Revision: 0
# Processed by: cddbd v1.5.1PL0 Copyright (c) Steve Scherf et al.
# Submitted via: CDex 1.50Beta6
#
DISCID=b80d240d
DTITLE=Laïka Fatien - Look At Me Now
DYEAR=2004
DGENRE=Jazz
TTITLE0=Love
TTITLE1=Zigaboogaloo
TTITLE2=Throw It Away
TTITLE3=Just Say Goodbye
TTITLE4=Where Are The Words
TTITLE5=Shallows (A Shade Of Jade)
TTITLE6=Silver Town (Serenity)
TTITLE7=Inchworm
TTITLE8=The Best Is Yet To Come
TTITLE9=Eleanor Rigby
TTITLE10=This Is For Albert Ayler (This Is For Albert)
TTITLE11=I Hear Music
TTITLE12=Bird Alone (bonus)
EXTD=YEAR: 2004
EXTT0=
EXTT1=
EXTT2=
EXTT3=
EXTT4=
EXTT5=
EXTT6=
EXTT7=
EXTT8=
EXTT9=
EXTT10=
EXTT11=
EXTT12=
PLAYORDER=
